<svg width="17" height="16" viewBox="0 0 17 16" fill="none" xmlns="http://www.w3.org/2000/svg">
<path d="M0.679521 12.717V14C0.679521 15.0998 3.30671 15.9551 6.54488 15.9551C9.78305 15.9551 12.4102 15.0998 12.4102 14V12.717C11.1272 13.6029 8.83604 14 6.54488 14C4.22318 14 1.93202 13.6029 0.679521 12.717ZM10.4551 4.2244C13.6933 4.2244 16.3205 3.36904 16.3205 2.26928C16.3205 1.20007 13.6933 0.314161 10.4551 0.314161C7.21695 0.314161 4.58976 1.20007 4.58976 2.26928C4.58976 3.36904 7.21695 4.2244 10.4551 4.2244ZM0.679521 9.50933V11.0673C0.679521 12.1671 3.30671 13.0224 6.54488 13.0224C9.78305 13.0224 12.4102 12.1671 12.4102 11.0673V9.50933C11.1272 10.548 8.83604 11.0673 6.54488 11.0673C4.22318 11.0673 1.93202 10.548 0.679521 9.50933ZM13.3878 9.84537C15.1291 9.50933 16.3205 8.86781 16.3205 8.13464V6.85159C15.5873 7.34037 14.5487 7.67641 13.3878 7.89025V9.84537ZM6.54488 5.20196C3.30671 5.20196 0.679521 6.30172 0.679521 7.64586C0.679521 9.02055 3.30671 10.0898 6.54488 10.0898C9.78305 10.0898 12.4102 9.02055 12.4102 7.64586C12.4102 6.30172 9.78305 5.20196 6.54488 5.20196ZM13.2351 6.94324C15.068 6.6072 16.3205 5.96568 16.3205 5.20196V3.91891C15.2207 4.68263 13.3573 5.07977 11.4021 5.20196C12.288 5.62964 12.9601 6.21007 13.2351 6.94324Z" fill="white"/>
</svg>