<svg width="17" height="17" viewBox="0 0 17 17" fill="none" xmlns="http://www.w3.org/2000/svg">
<g clip-path="url(#clip0)">
<path d="M6.60122 15.8744C6.82874 15.7765 6.9881 15.5503 6.9881 15.2869V13.5589C6.9881 13.4959 6.99322 13.4303 7.00122 13.3637C6.99674 13.365 6.99258 13.3659 6.9881 13.3669C6.9881 13.3669 6.0281 13.3669 5.8361 13.3669C5.3561 13.3669 4.9401 13.1749 4.7481 12.7909C4.5241 12.3749 4.4281 11.6709 3.8521 11.2869C3.7561 11.2229 3.8201 11.1269 4.0121 11.1269C4.2041 11.1589 4.6201 11.4149 4.8761 11.7669C5.1641 12.1189 5.4521 12.4069 5.9641 12.4069C6.75994 12.4069 7.1865 12.3669 7.44314 12.2293C7.74202 11.7848 8.15578 11.4469 8.5881 11.4469V11.4389C6.77434 11.3807 5.61562 10.7778 5.0761 9.8469C3.9033 9.86034 2.88218 9.9765 2.29946 10.0731C2.2809 9.9685 2.2649 9.86322 2.25114 9.7573C2.82618 9.66258 3.8009 9.55026 4.92154 9.52882C4.8857 9.4405 4.85466 9.34994 4.82842 9.25714C3.7049 9.20018 2.7353 9.24466 2.20858 9.28818C2.20218 9.18194 2.19354 9.07602 2.19226 8.9685C2.71994 8.9253 3.6633 8.8821 4.75802 8.93298C4.73274 8.77298 4.71642 8.60946 4.71642 8.43922C4.71642 7.89522 4.90842 7.31922 5.26042 6.83922C5.10042 6.29522 4.87642 5.14322 5.32442 4.72722C6.18842 4.72722 6.79642 5.14322 7.08442 5.39922C7.6281 5.1749 8.2361 5.0469 8.9081 5.0469C9.5801 5.0469 10.1881 5.1749 10.7001 5.3989C10.9881 5.1429 11.5961 4.7269 12.4601 4.7269C12.9401 5.1749 12.6841 6.3269 12.5241 6.8389C12.8761 7.3189 13.0681 7.8629 13.0361 8.4389C13.0361 8.59378 13.0217 8.74322 13.0009 8.88978C14.1206 8.83474 15.0895 8.8789 15.6262 8.92242C15.6255 9.03026 15.6156 9.13554 15.6099 9.2421C15.0751 9.19794 14.0819 9.1525 12.935 9.21362C12.9065 9.32114 12.8719 9.42578 12.831 9.52722C13.9657 9.54194 14.9638 9.6517 15.5663 9.7477C15.5526 9.85394 15.5366 9.95922 15.518 10.0635C14.9062 9.96562 13.8633 9.85106 12.6767 9.8453C12.1439 10.7663 11.0063 11.3669 9.2281 11.437V11.4469C10.0601 11.4469 10.8281 12.6949 10.8281 13.5589V15.2869C10.8281 15.5503 10.9875 15.7765 11.215 15.8744C14.1465 14.9042 16.2681 12.1394 16.2681 8.8869C16.2681 4.82866 12.9667 1.5269 8.9081 1.5269C4.84954 1.5269 1.5481 4.82866 1.5481 8.8869C1.5481 12.1394 3.6697 14.9042 6.60122 15.8744Z" fill="#859197"/>
</g>
<defs>
<clipPath id="clip0">
<rect width="16" height="16" fill="white" transform="translate(0.908081 0.886902)"/>
</clipPath>
</defs>
</svg>
