<svg width="22" height="19" viewBox="0 0 22 19" fill="none" xmlns="http://www.w3.org/2000/svg">
<path d="M8.53906 15.1914C8.43359 14.9805 8.25781 14.9453 8.1875 14.9453C8.08203 14.9453 7.90625 14.9805 7.80078 15.1562L7.55469 15.7188C7.30859 16.1406 6.67578 16.1055 6.5 15.6484L5.9375 13.8555L5.55078 14.9805C5.33984 15.6133 4.77734 16 4.10938 16H3.6875C3.37109 16 3.125 15.7539 3.125 15.4375C3.125 15.1562 3.37109 14.875 3.6875 14.875H4.10938C4.28516 14.875 4.42578 14.7695 4.49609 14.6289L5.12891 12.6953C5.23438 12.3438 5.55078 12.1328 5.9375 12.1328C6.28906 12.1328 6.60547 12.3438 6.71094 12.6953L7.20312 14.1719C7.90625 13.6094 9.10156 13.8203 9.52344 14.6641C9.59375 14.8047 9.73438 14.875 9.875 14.875V11.9922L14.375 7.52734V5.875H9.59375C9.10156 5.875 8.75 5.52344 8.75 5.03125V0.25H1.71875C1.22656 0.25 0.875 0.636719 0.875 1.09375V17.4062C0.875 17.8984 1.22656 18.25 1.71875 18.25H13.5312C13.9883 18.25 14.375 17.8984 14.375 17.4062V16H9.875C9.27734 16 8.78516 15.6836 8.53906 15.1914ZM14.375 4.53906C14.375 4.32812 14.2695 4.11719 14.1289 3.94141L10.6836 0.496094C10.5078 0.355469 10.2969 0.25 10.0859 0.25H9.875V4.75H14.375V4.53906ZM11 12.4492V14.875H13.3906L19.0859 9.17969L16.6953 6.78906L11 12.4492ZM20.8438 6.15625L19.7188 5.03125C19.3672 4.67969 18.8047 4.67969 18.4531 5.03125L17.5039 5.98047L19.8945 8.37109L20.8438 7.42188C21.1953 7.07031 21.1953 6.50781 20.8438 6.15625Z" fill="#AFAFAF" fill-opacity="0.5"/>
</svg>
