<svg width="16" height="19" viewBox="0 0 16 19" fill="none" xmlns="http://www.w3.org/2000/svg">
<path d="M4.66016 6.4375H6.03125C6.10156 5.48828 6.27734 4.64453 6.52344 3.97656C5.57422 4.43359 4.83594 5.34766 4.66016 6.4375ZM4.66016 7.5625C4.83594 8.6875 5.57422 9.60156 6.52344 10.0586C6.27734 9.39062 6.10156 8.54688 6.03125 7.5625H4.66016ZM8 10.3398C8.24609 10.0938 8.70312 9.14453 8.80859 7.5625H7.15625C7.26172 9.14453 7.71875 10.0938 8 10.3398ZM7.15625 6.4375H8.80859C8.70312 4.89062 8.24609 3.94141 8 3.69531C7.71875 3.94141 7.26172 4.89062 7.15625 6.4375ZM9.44141 10.0586C10.3906 9.60156 11.1289 8.6875 11.3047 7.5625H9.93359C9.86328 8.54688 9.6875 9.39062 9.44141 10.0586ZM14.75 0.25H2.375C1.10938 0.25 0.125 1.26953 0.125 2.5V16C0.125 17.2656 1.10938 18.25 2.375 18.25H14.75C15.3477 18.25 15.875 17.7578 15.875 17.125V1.375C15.875 0.777344 15.3477 0.25 14.75 0.25ZM11.9375 14.875H4.0625C3.74609 14.875 3.5 14.6289 3.5 14.3125C3.5 14.0312 3.74609 13.75 4.0625 13.75H11.9375C12.2188 13.75 12.5 14.0312 12.5 14.3125C12.5 14.6289 12.2188 14.875 11.9375 14.875ZM8 11.5C5.50391 11.5 3.5 9.49609 3.5 7C3.5 4.53906 5.50391 2.5 8 2.5C10.4609 2.5 12.5 4.53906 12.5 7C12.5 9.49609 10.4609 11.5 8 11.5ZM9.44141 3.97656C9.6875 4.64453 9.86328 5.48828 9.93359 6.4375H11.3047C11.1289 5.34766 10.3906 4.43359 9.44141 3.97656Z" fill="#22DFAB"/>
</svg>
