<svg width="18" height="17" viewBox="0 0 18 17" fill="none" xmlns="http://www.w3.org/2000/svg">
<path d="M16.207 3.75H2.8125C2.49609 3.75 2.25 3.50391 2.25 3.1875C2.25 2.90625 2.49609 2.625 2.8125 2.625H16.3125C16.5938 2.625 16.875 2.37891 16.875 2.0625C16.875 1.14844 16.1016 0.375 15.1875 0.375H2.25C0.984375 0.375 0 1.39453 0 2.625V13.875C0 15.1406 0.984375 16.125 2.25 16.125H16.207C17.1914 16.125 18 15.3867 18 14.4375V5.4375C18 4.52344 17.1914 3.75 16.207 3.75ZM14.625 11.0625C13.9922 11.0625 13.5 10.5703 13.5 9.9375C13.5 9.33984 13.9922 8.8125 14.625 8.8125C15.2227 8.8125 15.75 9.33984 15.75 9.9375C15.75 10.5703 15.2227 11.0625 14.625 11.0625Z" fill="#AFAFAF" fill-opacity="0.5"/>
</svg>
