<svg width="12" height="16" viewBox="0 0 12 16" fill="none" xmlns="http://www.w3.org/2000/svg">
<path d="M10.9219 0.875H1.07812C0.667969 0.875 0.375 1.19727 0.375 1.57812V2.04688C0.375 2.45703 0.667969 2.75 1.07812 2.75C1.07812 5.41602 2.57227 7.67188 4.59375 8.375C2.57227 9.10742 1.07812 11.3633 1.07812 14C0.667969 14 0.375 14.3223 0.375 14.7031V15.1719C0.375 15.582 0.667969 15.875 1.07812 15.875H10.9219C11.3027 15.875 11.625 15.582 11.625 15.1719V14.7031C11.625 14.3223 11.3027 14 10.9219 14C10.9219 11.3633 9.39844 9.10742 7.37695 8.375C9.39844 7.67188 10.9219 5.41602 10.9219 2.75C11.3027 2.75 11.625 2.45703 11.625 2.04688V1.57812C11.625 1.19727 11.3027 0.875 10.9219 0.875ZM8.69531 12.125H3.27539C3.77344 10.7773 4.79883 9.78125 6 9.78125C7.17188 9.78125 8.19727 10.7773 8.69531 12.125ZM8.69531 4.625H3.27539C3.04102 4.06836 2.95312 3.42383 2.95312 2.75H9.04688C9.04688 3.42383 8.92969 4.06836 8.69531 4.625Z" fill="#1FA5FF"/>
</svg>
