<svg width="16" height="16" viewBox="0 0 22 18" fill="none" xmlns="http://www.w3.org/2000/svg">
<path d="M21.5519 2.47342C20.7751 2.80824 19.9314 3.04932 19.0608 3.14307C19.9581 2.60735 20.6412 1.7636 20.9626 0.759138C20.1323 1.25467 19.1948 1.61628 18.2171 1.80378C17.4269 0.96003 16.3019 0.437709 15.0564 0.437709C12.659 0.437709 10.7305 2.37967 10.7305 4.7636C10.7305 5.09842 10.7706 5.43324 10.8376 5.75467C7.24833 5.56717 4.04743 3.85289 1.91797 1.22789C1.54297 1.87074 1.32868 2.60735 1.32868 3.41092C1.32868 4.91092 2.09208 6.23682 3.25725 7.0136C2.54743 6.98682 1.87779 6.78592 1.3019 6.46449C1.3019 6.47789 1.3019 6.50467 1.3019 6.51807C1.3019 8.62074 2.7885 10.3618 4.77065 10.7636C4.40904 10.8574 4.02065 10.9109 3.63225 10.9109C3.351 10.9109 3.08315 10.8841 2.81529 10.844C3.3644 12.5582 4.95815 13.8038 6.85993 13.844C5.37333 15.0091 3.51172 15.6922 1.4894 15.6922C1.12779 15.6922 0.792969 15.6788 0.444754 15.6386C2.35993 16.8707 4.63672 17.5806 7.08761 17.5806C15.043 17.5806 19.3956 10.9913 19.3956 5.27253C19.3956 5.08503 19.3956 4.89753 19.3823 4.71003C20.226 4.09396 20.9626 3.33057 21.5519 2.47342Z" fill="#1fa5ff"/>
</svg>
